<?xml version="1.0" encoding="UTF-8"?><svg id="Ebene_2" xmlns="http://www.w3.org/2000/svg" xmlns:xlink="http://www.w3.org/1999/xlink" viewBox="0 0 571.3446 191.4461"><defs><linearGradient id="Unbenannter_Verlauf_4" x1="925.6353" y1="-417.9759" x2="980.0842" y2="-417.9759" gradientTransform="translate(-529.4296 695.2608) rotate(-12.2105) scale(1.1909 1.0304)" gradientUnits="userSpaceOnUse"><stop offset="0" stop-color="#c6251d"/><stop offset=".4343" stop-color="#d95a53"/><stop offset=".9988" stop-color="#f4a69f"/></linearGradient><linearGradient id="Unbenannter_Verlauf_4-2" x1="942.374" y1="-374.4553" x2="984.2186" y2="-374.4553" xlink:href="#Unbenannter_Verlauf_4"/></defs><g id="Components"><g id="aed1713a-e9b7-41e4-a98e-322b5e3ea724_1"><path d="m476.3281,67.1065c1.0029.9599,2.7395,1.0033,3.9218.0896l41.0393-31.7158c.4247-.388.5768-.9453.3856-1.4339-.793-2.0216-4.3092-10.8768-9.6895-19.9072-4.4064-7.3959-7.111-11.5086-8.5096-13.5396-.5563-.8077-1.8842-.797-2.5339.0174l-40.425,53.3861c-.966,1.2757-.472,2.9208,1.0311,3.5383,5.6231,2.31,10.5928,5.5575,14.7801,9.5651Z" style="fill:url(#Unbenannter_Verlauf_4);"/><path d="m529.1627,53.9791l-42.4419,23.0734c-1.0537.5728-1.5152,1.7282-1.0353,2.6733,1.902,3.7452,3.3434,7.7956,4.2725,12.0887.2307,1.0662.4242,2.1312.584,3.1944.178,1.1836,1.4821,1.9182,2.8296,1.6088l38.0005-8.7235c.7138-.114,1.2692-.6488,1.3342-1.2905.2092-2.0598.5228-7.1507-.0602-16.4115-.5275-8.3705-1.0744-13.0038-1.3961-15.2346-.1262-.8789-1.1602-1.3612-2.0874-.9785Z" style="fill:url(#Unbenannter_Verlauf_4-2);"/><path d="m46.6009,62.8184c17.2388,0,27.6584,7.1989,34.2887,16.1023l-11.3663,10.4188c-5.4937-7.7668-12.8817-11.3655-22.1639-11.3655-17.9965,0-29.5526,13.8284-29.5526,32.7725s11.5561,32.9623,29.5526,32.9623c9.2822,0,16.6702-3.7893,22.1639-11.3671l11.3663,10.4196c-6.6303,8.9034-17.0498,16.1023-34.2887,16.1023-27.6576,0-46.6009-20.6485-46.6009-48.1171s18.9433-47.928,46.6009-47.928Z" style="fill:#761136;"/><path d="m152.307,156.5896v-10.0399c-7.1989,7.9566-17.6177,12.3138-29.9315,12.3138-15.1548,0-31.8249-10.2297-31.8249-30.3103,0-20.8375,16.4811-29.9307,31.8249-29.9307,12.3138,0,22.9224,3.9783,29.9315,12.124v-15.1556c0-11.3655-9.2822-18.1856-22.3537-18.1856-10.4188,0-19.3229,3.9783-27.4686,12.124l-7.388-11.7451c10.2297-10.0399,22.7326-14.9657,37.5085-14.9657,19.8908,0,36.7508,8.7143,36.7508,32.0148v61.7564h-17.049Zm0-35.6134c-5.1149-6.8201-14.0182-10.4196-23.4903-10.4196-12.3138,0-21.0273,7.388-21.0273,18.1864s8.7135,18.1856,21.0273,18.1856c9.472,0,18.3754-3.5995,23.4903-10.4188v-15.5336Z" style="fill:#761136;"/><path d="m209.8969,191.4461h-17.0498v-126.3546h17.0498v13.0715c6.6303-9.0932,17.6169-15.3446,29.9307-15.3446,23.8691,0,40.7291,17.9965,40.7291,47.928s-16.86,48.1171-40.7291,48.1171c-11.9341,0-22.5427-5.4937-29.9307-15.5344v48.1171Zm25.3845-113.4721c-10.4196,0-20.8383,6.0616-25.3845,13.4495v38.8348c4.5462,7.1981,14.9649,13.4503,25.3845,13.4503,17.049,0,27.4678-13.8292,27.4678-32.9623,0-18.9441-10.4188-32.7725-27.4678-32.7725Z" style="fill:#761136;"/><path d="m295.713,38.9493c0-6.0616,5.1149-10.9874,10.9874-10.9874,6.0616,0,10.9874,4.9258,10.9874,10.9874s-4.9258,10.7984-10.9874,10.7984c-5.8726,0-10.9874-4.736-10.9874-10.7984Zm2.6519,117.6403v-91.4981h17.0498v91.4981h-17.0498Z" style="fill:#761136;"/><path d="m342.1224,136.3199v-56.2627h-15.1548v-14.9657h15.1548v-25.0056h17.0498v25.0056h18.5644v14.9657h-18.5644v52.4742c0,6.4412,3.0308,11.1773,8.9034,11.1773,3.9783,0,7.5778-1.7052,9.2822-3.5995l4.3572,12.8817c-3.5995,3.4096-8.9034,5.8726-17.8067,5.8726-14.3971,0-21.7858-8.1457-21.7858-22.5435Z" style="fill:#761136;"/><path d="m387.2103,110.7464c0-26.332,17.8067-47.928,46.222-47.928,28.6051,0,46.2228,21.596,46.2228,47.928,0,26.521-17.6177,48.1171-46.2228,48.1171-28.4153,0-46.222-21.596-46.222-48.1171Zm74.6381,0c0-17.2388-10.0407-32.7725-28.4161-32.7725-18.1856,0-28.4153,15.5336-28.4153,32.7725,0,17.4279,10.2297,32.9623,28.4153,32.9623,18.3754,0,28.4161-15.5344,28.4161-32.9623Z" style="fill:#761136;"/><path d="m494.8766,144.9023c3.4426,0,6.3423,2.8989,6.3423,6.3423s-2.8997,6.3423-6.3423,6.3423-6.3423-2.8997-6.3423-6.3423,2.8997-6.3423,6.3423-6.3423Z" style="fill:#761136;"/><path d="m540.7214,156.5896v-4.7111c-3.2624,3.7153-8.3355,5.7986-14.134,5.7986-7.1579,0-15.2215-4.802-15.2215-14.496,0-10.0568,8.0636-14.2249,15.2215-14.2249,5.8886,0,10.9625,1.9023,14.134,5.6176v-6.5233c0-5.0738-4.1681-8.1545-10.2386-8.1545-4.8921,0-9.1511,1.8122-12.9557,5.5267l-3.8963-6.6142c5.0738-4.802,11.4161-7.067,18.3923-7.067,9.6948,0,18.2113,4.0773,18.2113,15.8562v28.992h-9.5131Zm0-16.5801c-2.175-2.9898-6.2522-4.5301-10.4196-4.5301-5.3457,0-9.3321,3.0807-9.3321,7.8826,0,4.7111,3.9864,7.7917,9.3321,7.7917,4.1673,0,8.2446-1.5403,10.4196-4.5301v-6.6142Z" style="fill:#761136;"/><path d="m559.5657,99.6914c0-3.2616,2.7179-5.8886,5.8895-5.8886,3.2616,0,5.8895,2.627,5.8895,5.8886s-2.6278,5.8895-5.8895,5.8895c-3.1716,0-5.8895-2.6278-5.8895-5.8895Zm1.1784,56.8981v-43.7607h9.5131v43.7607h-9.5131Z" style="fill:#761136;"/></g></g></svg>