<?xml version="1.0" encoding="UTF-8"?>
<!-- Generator: Adobe Illustrator 20.1.0, SVG Export Plug-In . SVG Version: 6.00 Build 0)  -->
<svg version="1.1" id="Ebene_1" xmlns="http://www.w3.org/2000/svg" xmlns:xlink="http://www.w3.org/1999/xlink" x="0px" y="0px" viewBox="0 0 140 40" style="enable-background:new 0 0 140 40;" xml:space="preserve">
<style type="text/css">
	.st0{fill:#B70E0C;}
	.st1{fill:#FFFFFF;}
</style>
<g>
	<path d="M54.414,24.565C54.092,30,49.825,31.73,46.323,31.73c-1.127,0-4.669-0.08-6.883-3.14c-1.691-2.294-1.812-5.474-1.812-7.165   c0-2.817,0.443-5.675,2.214-7.809c2.334-2.818,5.796-2.858,6.763-2.858c4.065,0,7.809,1.731,7.809,7.246h-3.381   c-0.081-3.099-1.57-4.991-4.508-4.991c-5.273,0-5.273,6.762-5.273,8.333c0,3.461,0.805,8.131,5.032,8.131   c1.288,0,2.536-0.523,3.301-1.329c1.087-1.167,1.288-2.938,1.369-3.583H54.414z"/>
</g>
<g>
	<path d="M74.262,31.327h-2.616c-1.53,0-1.771-0.523-1.691-2.254c-0.563,0.523-1.208,1.127-2.415,1.69   c-1.369,0.644-2.817,0.966-4.146,0.966c-4.508,0-5.675-3.502-5.675-5.796c0-0.845,0.161-1.65,0.483-2.375   c1.369-3.18,4.709-3.583,8.373-4.025l3.381-0.362v-1.812c-0.04-1.771-0.08-4.347-3.743-4.347c-0.685,0-2.294,0-3.421,1.167   c-1.087,1.086-1.127,2.536-1.127,3.421h-3.26c0-0.845-0.041-2.093,0.563-3.301c1.046-2.174,3.824-3.542,7.567-3.542   c1.409,0,4.025,0.282,5.394,1.61c1.409,1.409,1.409,3.381,1.409,4.83v11.07c0,0.845,0,1.409,0.201,1.892   c0.202,0.523,0.403,0.604,0.725,0.685v0.483H74.262z M69.954,21.063l-1.006,0.121c-3.14,0.362-4.911,0.765-5.796,1.288   c-1.369,0.805-1.812,2.013-1.812,3.22c0,2.254,1.489,3.743,3.663,3.743c1.086,0,2.294-0.402,3.099-0.926   c1.771-1.127,1.812-2.737,1.852-3.985V21.063z"/>
	<path d="M82.394,13.657c0.886-1.006,2.616-2.898,6.32-2.898c7.567,0,7.567,8.292,7.567,10.144c0,4.83-1.409,10.828-8.453,10.828   c-3.26,0-4.629-1.57-5.434-2.536V39.62h-3.381V11.161h3.381C82.394,11.161,82.394,13.657,82.394,13.657z M82.354,24.565   c0,3.945,2.898,4.911,4.791,4.911c5.474,0,5.514-6.078,5.514-8.171c0-3.502-0.644-8.292-5.112-8.292   c-1.53,0-3.22,0.684-4.106,1.812c-1.006,1.248-1.046,2.979-1.087,4.307V24.565z"/>
	<path d="M104.374,6.854h-3.421V3.352h3.421V6.854z M104.414,31.327h-3.461V11.201h3.461V31.327z"/>
	<path d="M114.156,13.294l-0.081,11.553c0.04,2.294,0.04,4.307,2.616,4.307c1.006,0,1.731-0.241,2.335-0.483v2.334   c-0.805,0.282-2.013,0.685-3.784,0.685c-2.898,0-3.784-1.449-4.025-1.812c-0.644-1.046-0.685-2.657-0.644-4.548l0.081-12.036h-3.06   v-2.093h3.06V6.814l3.502-0.604v4.991h3.784v2.093H114.156z"/>
	<path d="M129.412,31.73c-8.091,0-8.735-6.48-8.735-10.224c0-2.979,0.201-10.748,9.017-10.748c8.211,0,8.574,6.44,8.654,9.701   C138.429,23.921,138.348,31.73,129.412,31.73z M129.694,12.972c-5.273,0-5.394,6.159-5.394,8.413c0,2.938,0.282,8.171,5.313,8.171   c3.864,0,5.193-3.341,5.112-8.896C134.685,16.112,133.437,12.972,129.694,12.972z"/>
</g>
<rect class="st0" width="31.879" height="31.878"/>
<polygon class="st1" points="25.062,13.574 17.835,2.669 13.004,4.654 22.259,15.057 "/>
<polygon class="st1" points="20.745,17.059 6.4,10.208 2.412,14.702 18.248,20.157 "/>
</svg>